<?xml version="1.0" standalone="no"?>
<!DOCTYPE svg PUBLIC "-//W3C//DTD SVG 20010904//EN"
 "http://www.w3.org/TR/2001/REC-SVG-20010904/DTD/svg10.dtd">
<svg version="1.0" xmlns="http://www.w3.org/2000/svg"
 width="512.000000pt" height="512.000000pt" viewBox="0 0 512.000000 512.000000"
 preserveAspectRatio="xMidYMid meet">
<metadata>
Created by potrace 1.11, written by Peter Selinger 2001-2013
</metadata>
<g transform="translate(0.000000,512.000000) scale(0.100000,-0.100000)"
fill="#000000" stroke="none">
<path d="M2300 4510 c-765 -93 -1422 -546 -1775 -1222 -438 -840 -319 -1850
301 -2567 55 -63 104 -116 109 -118 6 -2 87 73 180 167 l170 170 -51 52 c-268
280 -449 689 -480 1085 l-7 93 150 0 c149 0 150 0 177 26 37 37 35 86 -3 125
l-29 29 -147 0 -146 0 6 48 c55 412 176 699 422 1000 11 13 28 1 117 -86 57
-56 116 -104 130 -108 55 -13 116 37 116 97 0 15 -37 60 -110 134 l-110 111
32 30 c188 174 453 319 728 398 80 23 234 49 343 59 l47 5 0 -135 c0 -77 5
-143 11 -155 6 -11 26 -26 45 -34 29 -12 39 -12 68 0 19 8 39 23 45 34 6 12
11 78 11 156 l0 136 48 -6 c138 -16 265 -39 357 -64 248 -70 501 -208 698
-381 l58 -51 -100 -103 c-95 -96 -101 -105 -101 -143 0 -33 6 -45 32 -67 54
-45 85 -33 199 81 l96 96 36 -43 c93 -109 208 -305 270 -464 62 -157 93 -284
122 -497 l6 -48 -160 0 c-154 0 -161 -1 -188 -24 -22 -19 -28 -32 -28 -66 0
-34 6 -47 28 -66 27 -23 34 -24 189 -24 l161 0 -7 -82 c-32 -405 -193 -779
-462 -1075 l-67 -75 172 -171 172 -172 50 55 c169 185 286 355 390 565 279
567 311 1224 89 1816 -208 552 -618 1004 -1145 1259 -210 102 -387 159 -625
202 -131 23 -507 34 -640 18z"/>
<path d="M3444 3148 c-17 -4 -53 -27 -80 -50 -136 -120 -982 -913 -1002 -941
-20 -27 -23 -41 -20 -89 5 -70 38 -123 104 -166 60 -40 106 -49 159 -31 36 13
78 62 453 544 228 292 429 553 447 580 46 68 51 95 26 127 -25 31 -46 37 -87
26z"/>
<path d="M1861 1344 c-40 -28 -51 -73 -51 -204 0 -131 11 -176 51 -204 21 -14
91 -16 699 -16 749 0 707 -4 736 66 19 46 19 262 0 308 -29 70 13 66 -736 66
-608 0 -678 -2 -699 -16z"/>
</g>
</svg>
